<?xml version="1.0" encoding="UTF-8" standalone="no"?>
<!DOCTYPE svg PUBLIC "-//W3C//DTD SVG 1.1//EN"
 "http://www.w3.org/Graphics/SVG/1.1/DTD/svg11.dtd">
<!-- Generated by graphviz version 12.2.1 (0)
 -->
<!-- Title: G Pages: 1 -->
<svg width="1515pt" height="2084pt"
 viewBox="0.00 0.00 1515.00 2084.00" xmlns="http://www.w3.org/2000/svg" xmlns:xlink="http://www.w3.org/1999/xlink">
<g id="graph0" class="graph" transform="scale(1 1) rotate(0) translate(4 2080)">
<title>G</title>
<polygon fill="white" stroke="none" points="-4,4 -4,-2080 1511,-2080 1511,4 -4,4"/>
<g id="clust2" class="cluster">
<title>cluster_e2bcd554</title>
<polygon fill="none" stroke="black" stroke-dasharray="1,5" points="351,-1798 351,-1875 959.12,-1875 959.12,-1798 351,-1798"/>
<text text-anchor="middle" x="655.06" y="-1857.7" font-family="Times,serif" font-size="14.00">File: MainDEM</text>
</g>
<g id="clust3" class="cluster">
<title>cluster_a2c3cedf</title>
<polygon fill="none" stroke="black" stroke-dasharray="1,5" points="352,-242 352,-414 955.12,-414 955.12,-242 352,-242"/>
<text text-anchor="middle" x="653.56" y="-396.7" font-family="Times,serif" font-size="14.00">File: base_validation</text>
</g>
<g id="clust4" class="cluster">
<title>cluster_585c52d8</title>
<polygon fill="none" stroke="black" stroke-dasharray="1,5" points="360,-250 360,-381 947.12,-381 947.12,-250 360,-250"/>
<text text-anchor="middle" x="653.56" y="-363.7" font-family="Times,serif" font-size="14.00">Class: BaseValidationScenario</text>
</g>
<g id="clust5" class="cluster">
<title>cluster_66445078</title>
<polygon fill="none" stroke="black" stroke-dasharray="1,5" points="809.12,-1034 809.12,-1152 931.12,-1152 931.12,-1034 809.12,-1034"/>
<text text-anchor="middle" x="870.12" y="-1134.7" font-family="Times,serif" font-size="14.00">File: boundary</text>
</g>
<g id="clust6" class="cluster">
<title>cluster_aade72c3</title>
<polygon fill="none" stroke="black" stroke-dasharray="1,5" points="817.12,-1042 817.12,-1119 923.12,-1119 923.12,-1042 817.12,-1042"/>
<text text-anchor="middle" x="870.12" y="-1101.7" font-family="Times,serif" font-size="14.00">Class: Boundary</text>
</g>
<g id="clust7" class="cluster">
<title>cluster_209af239</title>
<polygon fill="none" stroke="black" stroke-dasharray="1,5" points="790.25,-1425 790.25,-1651 1499,-1651 1499,-1425 790.25,-1425"/>
<text text-anchor="middle" x="1144.62" y="-1633.7" font-family="Times,serif" font-size="14.00">File: contact_model</text>
</g>
<g id="clust8" class="cluster">
<title>cluster_652b5473</title>
<polygon fill="none" stroke="black" stroke-dasharray="1,5" points="1020.38,-1433 1020.38,-1618 1491,-1618 1491,-1433 1020.38,-1433"/>
<text text-anchor="middle" x="1255.69" y="-1600.7" font-family="Times,serif" font-size="14.00">Class: HertzMindlinDashpot</text>
</g>
<g id="clust9" class="cluster">
<title>cluster_efd9cc81</title>
<polygon fill="none" stroke="black" stroke-dasharray="1,5" points="811.5,-450 811.5,-568 927.75,-568 927.75,-450 811.5,-450"/>
<text text-anchor="middle" x="869.62" y="-550.7" font-family="Times,serif" font-size="14.00">File: particle</text>
</g>
<g id="clust10" class="cluster">
<title>cluster_53e7ba11</title>
<polygon fill="none" stroke="black" stroke-dasharray="1,5" points="819.5,-458 819.5,-535 919.75,-535 919.75,-458 819.5,-458"/>
<text text-anchor="middle" x="869.62" y="-517.7" font-family="Times,serif" font-size="14.00">Class: Particle</text>
</g>
<g id="clust11" class="cluster">
<title>cluster_8cb0a04a</title>
<polygon fill="none" stroke="black" stroke-dasharray="1,5" points="351,-1659 351,-1790 1196.75,-1790 1196.75,-1659 351,-1659"/>
<text text-anchor="middle" x="773.88" y="-1772.7" font-family="Times,serif" font-size="14.00">File: plot_field</text>
</g>
<g id="clust12" class="cluster">
<title>cluster_fc91e288</title>
<polygon fill="none" stroke="black" stroke-dasharray="1,5" points="798.88,-1883 798.88,-2068 940.38,-2068 940.38,-1883 798.88,-1883"/>
<text text-anchor="middle" x="869.62" y="-2050.7" font-family="Times,serif" font-size="14.00">File: plot_utils</text>
</g>
<g id="clust13" class="cluster">
<title>cluster_83631eb2</title>
<polygon fill="none" stroke="black" stroke-dasharray="1,5" points="351,-1305 351,-1382 676.88,-1382 676.88,-1305 351,-1305"/>
<text text-anchor="middle" x="513.94" y="-1364.7" font-family="Times,serif" font-size="14.00">File: scenario_1_bouncing</text>
</g>
<g id="clust14" class="cluster">
<title>cluster_6e04c794</title>
<polygon fill="none" stroke="black" stroke-dasharray="1,5" points="351,-8 351,-234 974.62,-234 974.62,-8 351,-8"/>
<text text-anchor="middle" x="662.81" y="-216.7" font-family="Times,serif" font-size="14.00">File: scenario_2_sliding</text>
</g>
<g id="clust15" class="cluster">
<title>cluster_2d6a7689</title>
<polygon fill="none" stroke="black" stroke-dasharray="1,5" points="526,-16 526,-201 966.62,-201 966.62,-16 526,-16"/>
<text text-anchor="middle" x="746.31" y="-183.7" font-family="Times,serif" font-size="14.00">Class: SlidingFrictionScenario</text>
</g>
<g id="clust16" class="cluster">
<title>cluster_e3a213f8</title>
<polygon fill="none" stroke="black" stroke-dasharray="1,5" points="351,-1220 351,-1297 676.88,-1297 676.88,-1220 351,-1220"/>
<text text-anchor="middle" x="513.94" y="-1279.7" font-family="Times,serif" font-size="14.00">File: scenario_3_rolling</text>
</g>
<g id="clust17" class="cluster">
<title>cluster_59cfaafd</title>
<polygon fill="none" stroke="black" stroke-dasharray="1,5" points="84,-576 84,-802 740.38,-802 740.38,-576 84,-576"/>
<text text-anchor="middle" x="412.19" y="-784.7" font-family="Times,serif" font-size="14.00">File: scenario_4_collision</text>
</g>
<g id="clust18" class="cluster">
<title>cluster_c53a7f3b</title>
<polygon fill="none" stroke="black" stroke-dasharray="1,5" points="294,-584 294,-769 732.38,-769 732.38,-584 294,-584"/>
<text text-anchor="middle" x="513.19" y="-751.7" font-family="Times,serif" font-size="14.00">Class: ObliqueCollisionScenario</text>
</g>
<g id="clust19" class="cluster">
<title>cluster_53d0257e</title>
<polygon fill="none" stroke="black" stroke-dasharray="1,5" points="789.75,-1160 789.75,-1332 949.5,-1332 949.5,-1160 789.75,-1160"/>
<text text-anchor="middle" x="869.62" y="-1314.7" font-family="Times,serif" font-size="14.00">File: solver</text>
</g>
<g id="clust20" class="cluster">
<title>cluster_e9600c0a</title>
<polygon fill="none" stroke="black" stroke-dasharray="1,5" points="797.75,-1168 797.75,-1299 941.5,-1299 941.5,-1168 797.75,-1168"/>
<text text-anchor="middle" x="869.62" y="-1281.7" font-family="Times,serif" font-size="14.00">Class: DEMSolver</text>
</g>
<g id="clust21" class="cluster">
<title>cluster_facf33c6</title>
<polygon fill="none" stroke="black" stroke-dasharray="1,5" points="547.88,-450 547.88,-568 717.12,-568 717.12,-450 547.88,-450"/>
<text text-anchor="middle" x="632.5" y="-550.7" font-family="Times,serif" font-size="14.00">File: test_task1_contact</text>
</g>
<g id="clust22" class="cluster">
<title>cluster_a9066954</title>
<polygon fill="none" stroke="black" stroke-dasharray="1,5" points="555.88,-458 555.88,-535 709.12,-535 709.12,-458 555.88,-458"/>
<text text-anchor="middle" x="632.5" y="-517.7" font-family="Times,serif" font-size="14.00">Class: TestContactModel</text>
</g>
<g id="clust23" class="cluster">
<title>cluster_6b7d0753</title>
<polygon fill="none" stroke="black" stroke-dasharray="1,5" points="756.38,-576 756.38,-1026 1267,-1026 1267,-576 756.38,-576"/>
<text text-anchor="middle" x="1011.69" y="-1008.7" font-family="Times,serif" font-size="14.00">File: test_task2_fixedboundaries</text>
</g>
<g id="clust24" class="cluster">
<title>cluster_f50e0ffb</title>
<polygon fill="none" stroke="black" stroke-dasharray="1,5" points="1067.5,-916 1067.5,-993 1193.75,-993 1193.75,-916 1067.5,-916"/>
<text text-anchor="middle" x="1130.62" y="-975.7" font-family="Times,serif" font-size="14.00">Class: MockParticle</text>
</g>
<g id="clust25" class="cluster">
<title>cluster_f818a06d</title>
<polygon fill="none" stroke="black" stroke-dasharray="1,5" points="1061.5,-831 1061.5,-908 1199.75,-908 1199.75,-831 1061.5,-831"/>
<text text-anchor="middle" x="1130.62" y="-890.7" font-family="Times,serif" font-size="14.00">Class: MockBoundary</text>
</g>
<g id="clust26" class="cluster">
<title>cluster_5ceee7b4</title>
<polygon fill="none" stroke="black" stroke-dasharray="1,5" points="764.38,-584 764.38,-823 1259,-823 1259,-584 764.38,-584"/>
<text text-anchor="middle" x="1011.69" y="-805.7" font-family="Times,serif" font-size="14.00">Class: TestHertzMindlinBoundary</text>
</g>
<g id="clust27" class="cluster">
<title>cluster_ebb63986</title>
<polygon fill="none" stroke="black" stroke-dasharray="1,5" points="758,-1340 758,-1417 981.25,-1417 981.25,-1340 758,-1340"/>
<text text-anchor="middle" x="869.62" y="-1399.7" font-family="Times,serif" font-size="14.00">File: time_integration</text>
</g>
<!-- Legend -->
<g id="node1" class="node">
<title>Legend</title>
<polygon fill="none" stroke="black" points="1,-547.75 1,-566.25 265,-566.25 265,-547.75 1,-547.75"/>
<text text-anchor="start" x="80.88" y="-551.95" font-family="Times,serif" font-size="14.00">Code2flow Legend</text>
<polygon fill="none" stroke="black" points="1,-453.75 1,-547.75 265,-547.75 265,-453.75 1,-453.75"/>
<polygon fill="none" stroke="black" points="3,-523.25 3,-545.75 213,-545.75 213,-523.25 3,-523.25"/>
<text text-anchor="start" x="62.25" y="-529.45" font-family="Times,serif" font-size="14.00">Regular function</text>
<polygon fill="#cccccc" stroke="none" points="213,-523.25 213,-545.75 263,-545.75 263,-523.25 213,-523.25"/>
<polygon fill="none" stroke="black" points="213,-523.25 213,-545.75 263,-545.75 263,-523.25 213,-523.25"/>
<polygon fill="none" stroke="black" points="3,-500.75 3,-523.25 213,-523.25 213,-500.75 3,-500.75"/>
<text text-anchor="start" x="14.25" y="-506.95" font-family="Times,serif" font-size="14.00">Trunk function (nothing calls this)</text>
<polygon fill="#966f33" stroke="none" points="213,-500.75 213,-523.25 263,-523.25 263,-500.75 213,-500.75"/>
<polygon fill="none" stroke="black" points="213,-500.75 213,-523.25 263,-523.25 263,-500.75 213,-500.75"/>
<polygon fill="none" stroke="black" points="3,-478.25 3,-500.75 213,-500.75 213,-478.25 3,-478.25"/>
<text text-anchor="start" x="6" y="-484.45" font-family="Times,serif" font-size="14.00">Leaf function (this calls nothing else)</text>
<polygon fill="#6db33f" stroke="none" points="213,-478.25 213,-500.75 263,-500.75 263,-478.25 213,-478.25"/>
<polygon fill="none" stroke="black" points="213,-478.25 213,-500.75 263,-500.75 263,-478.25 213,-478.25"/>
<polygon fill="none" stroke="black" points="3,-455.75 3,-478.25 213,-478.25 213,-455.75 3,-455.75"/>
<text text-anchor="start" x="72.38" y="-461.95" font-family="Times,serif" font-size="14.00">Function call</text>
<polygon fill="none" stroke="black" points="213,-455.75 213,-478.25 263,-478.25 263,-455.75 213,-455.75"/>
<text text-anchor="start" x="230.88" y="-461.95" font-family="Times,serif" font-size="14.00">→</text>
<polygon fill="none" stroke="black" points="2,-454.75 2,-546.75 264,-546.75 264,-454.75 2,-454.75"/>
<polygon fill="none" stroke="black" points="0,-452.75 0,-567.25 266,-567.25 266,-452.75 0,-452.75"/>
</g>
<!-- node_7fc9b244 -->
<g id="node2" class="node">
<title>node_7fc9b244</title>
<path fill="#966f33" stroke="black" d="M429,-1842C429,-1842 371,-1842 371,-1842 365,-1842 359,-1836 359,-1830 359,-1830 359,-1818 359,-1818 359,-1812 365,-1806 371,-1806 371,-1806 429,-1806 429,-1806 435,-1806 441,-1812 441,-1818 441,-1818 441,-1830 441,-1830 441,-1836 435,-1842 429,-1842"/>
<text text-anchor="middle" x="400" y="-1818.95" font-family="Times,serif" font-size="14.00">0: (global)()</text>
</g>
<!-- node_c6b96ffd -->
<g id="node4" class="node">
<title>node_c6b96ffd</title>
<path fill="#cccccc" stroke="black" d="M656.88,-1842C656.88,-1842 607.12,-1842 607.12,-1842 601.12,-1842 595.12,-1836 595.12,-1830 595.12,-1830 595.12,-1818 595.12,-1818 595.12,-1812 601.12,-1806 607.12,-1806 607.12,-1806 656.88,-1806 656.88,-1806 662.88,-1806 668.88,-1812 668.88,-1818 668.88,-1818 668.88,-1830 668.88,-1830 668.88,-1836 662.88,-1842 656.88,-1842"/>
<text text-anchor="middle" x="632" y="-1818.95" font-family="Times,serif" font-size="14.00">11: main()</text>
</g>
<!-- node_7fc9b244&#45;&gt;node_c6b96ffd -->
<g id="edge1" class="edge">
<title>node_7fc9b244&#45;&gt;node_c6b96ffd</title>
<path fill="none" stroke="#f0e442" stroke-width="2" d="M441.48,-1824C441.48,-1824 581.69,-1824 581.69,-1824"/>
<polygon fill="#f0e442" stroke="#f0e442" stroke-width="2" points="581.69,-1827.5 591.69,-1824 581.69,-1820.5 581.69,-1827.5"/>
</g>
<!-- node_956009bd -->
<g id="node3" class="node">
<title>node_956009bd</title>
<path fill="#6db33f" stroke="black" d="M939.12,-1842C939.12,-1842 800.12,-1842 800.12,-1842 794.12,-1842 788.12,-1836 788.12,-1830 788.12,-1830 788.12,-1818 788.12,-1818 788.12,-1812 794.12,-1806 800.12,-1806 800.12,-1806 939.12,-1806 939.12,-1806 945.12,-1806 951.12,-1812 951.12,-1818 951.12,-1818 951.12,-1830 951.12,-1830 951.12,-1836 945.12,-1842 939.12,-1842"/>
<text text-anchor="middle" x="869.62" y="-1818.95" font-family="Times,serif" font-size="14.00">104: animate_trajectories()</text>
</g>
<!-- node_c6b96ffd&#45;&gt;node_956009bd -->
<g id="edge2" class="edge">
<title>node_c6b96ffd&#45;&gt;node_956009bd</title>
<path fill="none" stroke="#0072b2" stroke-width="2" d="M669.13,-1836.86C669.13,-1836.86 774.99,-1836.86 774.99,-1836.86"/>
<polygon fill="#0072b2" stroke="#0072b2" stroke-width="2" points="774.99,-1840.36 784.99,-1836.86 774.99,-1833.36 774.99,-1840.36"/>
</g>
<!-- node_f494bab9 -->
<g id="node14" class="node">
<title>node_f494bab9</title>
<path fill="#cccccc" stroke="black" d="M929,-1477C929,-1477 810.25,-1477 810.25,-1477 804.25,-1477 798.25,-1471 798.25,-1465 798.25,-1465 798.25,-1453 798.25,-1453 798.25,-1447 804.25,-1441 810.25,-1441 810.25,-1441 929,-1441 929,-1441 935,-1441 941,-1447 941,-1453 941,-1453 941,-1465 941,-1465 941,-1471 935,-1477 929,-1477"/>
<text text-anchor="middle" x="869.62" y="-1453.95" font-family="Times,serif" font-size="14.00">6: get_contact_model()</text>
</g>
<!-- node_c6b96ffd&#45;&gt;node_f494bab9 -->
<g id="edge3" class="edge">
<title>node_c6b96ffd&#45;&gt;node_f494bab9</title>
<path fill="none" stroke="#0072b2" stroke-width="2" d="M669.23,-1821.43C683.31,-1821.43 696,-1821.43 696,-1821.43 696,-1821.43 696,-1468 696,-1468 696,-1468 784.72,-1468 784.72,-1468"/>
<polygon fill="#0072b2" stroke="#0072b2" stroke-width="2" points="784.72,-1471.5 794.72,-1468 784.72,-1464.5 784.72,-1471.5"/>
</g>
<!-- node_b612a394 -->
<g id="node15" class="node">
<title>node_b612a394</title>
<path fill="#6db33f" stroke="black" d="M899.75,-502C899.75,-502 839.5,-502 839.5,-502 833.5,-502 827.5,-496 827.5,-490 827.5,-490 827.5,-478 827.5,-478 827.5,-472 833.5,-466 839.5,-466 839.5,-466 899.75,-466 899.75,-466 905.75,-466 911.75,-472 911.75,-478 911.75,-478 911.75,-490 911.75,-490 911.75,-496 905.75,-502 899.75,-502"/>
<text text-anchor="middle" x="869.62" y="-478.95" font-family="Times,serif" font-size="14.00">6: __init__()</text>
</g>
<!-- node_c6b96ffd&#45;&gt;node_b612a394 -->
<g id="edge4" class="edge">
<title>node_c6b96ffd&#45;&gt;node_b612a394</title>
<path fill="none" stroke="#0072b2" stroke-width="2" d="M669.08,-1826.57C706.56,-1826.57 759,-1826.57 759,-1826.57 759,-1826.57 759,-497.5 759,-497.5 759,-497.5 814.14,-497.5 814.14,-497.5"/>
<polygon fill="#0072b2" stroke="#0072b2" stroke-width="2" points="814.14,-501 824.14,-497.5 814.14,-494 814.14,-501"/>
</g>
<!-- node_fd944f36 -->
<g id="node21" class="node">
<title>node_fd944f36</title>
<path fill="#6db33f" stroke="black" d="M911,-1927C911,-1927 828.25,-1927 828.25,-1927 822.25,-1927 816.25,-1921 816.25,-1915 816.25,-1915 816.25,-1903 816.25,-1903 816.25,-1897 822.25,-1891 828.25,-1891 828.25,-1891 911,-1891 911,-1891 917,-1891 923,-1897 923,-1903 923,-1903 923,-1915 923,-1915 923,-1921 917,-1927 911,-1927"/>
<text text-anchor="middle" x="869.62" y="-1903.95" font-family="Times,serif" font-size="14.00">20: plot_forces()</text>
</g>
<!-- node_c6b96ffd&#45;&gt;node_fd944f36 -->
<g id="edge6" class="edge">
<title>node_c6b96ffd&#45;&gt;node_fd944f36</title>
<path fill="none" stroke="#0072b2" stroke-width="2" d="M650,-1842.44C650,-1867.44 650,-1909 650,-1909 650,-1909 802.87,-1909 802.87,-1909"/>
<polygon fill="#0072b2" stroke="#0072b2" stroke-width="2" points="802.87,-1912.5 812.87,-1909 802.87,-1905.5 802.87,-1912.5"/>
</g>
<!-- node_763c04a6 -->
<g id="node22" class="node">
<title>node_763c04a6</title>
<path fill="#6db33f" stroke="black" d="M914.38,-1981C914.38,-1981 824.88,-1981 824.88,-1981 818.88,-1981 812.88,-1975 812.88,-1969 812.88,-1969 812.88,-1957 812.88,-1957 812.88,-1951 818.88,-1945 824.88,-1945 824.88,-1945 914.38,-1945 914.38,-1945 920.38,-1945 926.38,-1951 926.38,-1957 926.38,-1957 926.38,-1969 926.38,-1969 926.38,-1975 920.38,-1981 914.38,-1981"/>
<text text-anchor="middle" x="869.62" y="-1957.95" font-family="Times,serif" font-size="14.00">32: plot_torques()</text>
</g>
<!-- node_c6b96ffd&#45;&gt;node_763c04a6 -->
<g id="edge7" class="edge">
<title>node_c6b96ffd&#45;&gt;node_763c04a6</title>
<path fill="none" stroke="#0072b2" stroke-width="2" d="M632,-1842.46C632,-1880.27 632,-1963 632,-1963 632,-1963 799.38,-1963 799.38,-1963"/>
<polygon fill="#0072b2" stroke="#0072b2" stroke-width="2" points="799.38,-1966.5 809.38,-1963 799.38,-1959.5 799.38,-1966.5"/>
</g>
<!-- node_84961edf -->
<g id="node23" class="node">
<title>node_84961edf</title>
<path fill="#6db33f" stroke="black" d="M920.38,-2035C920.38,-2035 818.88,-2035 818.88,-2035 812.88,-2035 806.88,-2029 806.88,-2023 806.88,-2023 806.88,-2011 806.88,-2011 806.88,-2005 812.88,-1999 818.88,-1999 818.88,-1999 920.38,-1999 920.38,-1999 926.38,-1999 932.38,-2005 932.38,-2011 932.38,-2011 932.38,-2023 932.38,-2023 932.38,-2029 926.38,-2035 920.38,-2035"/>
<text text-anchor="middle" x="869.62" y="-2011.95" font-family="Times,serif" font-size="14.00">46: plot_velocities()</text>
</g>
<!-- node_c6b96ffd&#45;&gt;node_84961edf -->
<g id="edge8" class="edge">
<title>node_c6b96ffd&#45;&gt;node_84961edf</title>
<path fill="none" stroke="#0072b2" stroke-width="2" d="M614,-1842.16C614,-1890.2 614,-2017 614,-2017 614,-2017 793.41,-2017 793.41,-2017"/>
<polygon fill="#0072b2" stroke="#0072b2" stroke-width="2" points="793.41,-2020.5 803.41,-2017 793.41,-2013.5 793.41,-2020.5"/>
</g>
<!-- node_c1983094 -->
<g id="node41" class="node">
<title>node_c1983094</title>
<path fill="#6db33f" stroke="black" d="M899.75,-1266C899.75,-1266 839.5,-1266 839.5,-1266 833.5,-1266 827.5,-1260 827.5,-1254 827.5,-1254 827.5,-1242 827.5,-1242 827.5,-1236 833.5,-1230 839.5,-1230 839.5,-1230 899.75,-1230 899.75,-1230 905.75,-1230 911.75,-1236 911.75,-1242 911.75,-1242 911.75,-1254 911.75,-1254 911.75,-1260 905.75,-1266 899.75,-1266"/>
<text text-anchor="middle" x="869.62" y="-1242.95" font-family="Times,serif" font-size="14.00">2: __init__()</text>
</g>
<!-- node_c6b96ffd&#45;&gt;node_c1983094 -->
<g id="edge9" class="edge">
<title>node_c6b96ffd&#45;&gt;node_c1983094</title>
<path fill="none" stroke="#0072b2" stroke-width="2" d="M669.37,-1816.29C681.07,-1816.29 691,-1816.29 691,-1816.29 691,-1816.29 691,-1250.4 691,-1250.4 691,-1250.4 814.27,-1250.4 814.27,-1250.4"/>
<polygon fill="#0072b2" stroke="#0072b2" stroke-width="2" points="814.27,-1253.9 824.27,-1250.4 814.27,-1246.9 814.27,-1253.9"/>
</g>
<!-- node_b3dfb935 -->
<g id="node42" class="node">
<title>node_b3dfb935</title>
<path fill="#cccccc" stroke="black" d="M921.5,-1212C921.5,-1212 817.75,-1212 817.75,-1212 811.75,-1212 805.75,-1206 805.75,-1200 805.75,-1200 805.75,-1188 805.75,-1188 805.75,-1182 811.75,-1176 817.75,-1176 817.75,-1176 921.5,-1176 921.5,-1176 927.5,-1176 933.5,-1182 933.5,-1188 933.5,-1188 933.5,-1200 933.5,-1200 933.5,-1206 927.5,-1212 921.5,-1212"/>
<text text-anchor="middle" x="869.62" y="-1188.95" font-family="Times,serif" font-size="14.00">9: solve_time_step()</text>
</g>
<!-- node_c6b96ffd&#45;&gt;node_b3dfb935 -->
<g id="edge10" class="edge">
<title>node_c6b96ffd&#45;&gt;node_b3dfb935</title>
<path fill="none" stroke="#0072b2" stroke-width="2" d="M669.21,-1811.14C678.56,-1811.14 686,-1811.14 686,-1811.14 686,-1811.14 686,-1204.8 686,-1204.8 686,-1204.8 792.37,-1204.8 792.37,-1204.8"/>
<polygon fill="#0072b2" stroke="#0072b2" stroke-width="2" points="792.37,-1208.3 802.37,-1204.8 792.37,-1201.3 792.37,-1208.3"/>
</g>
<!-- node_221c4ea0 -->
<g id="node51" class="node">
<title>node_221c4ea0</title>
<path fill="#6db33f" stroke="black" d="M961.25,-1384C961.25,-1384 778,-1384 778,-1384 772,-1384 766,-1378 766,-1372 766,-1372 766,-1360 766,-1360 766,-1354 772,-1348 778,-1348 778,-1348 961.25,-1348 961.25,-1348 967.25,-1348 973.25,-1354 973.25,-1360 973.25,-1360 973.25,-1372 973.25,-1372 973.25,-1378 967.25,-1384 961.25,-1384"/>
<text text-anchor="middle" x="869.62" y="-1360.95" font-family="Times,serif" font-size="14.00">42: get_time_integration_method()</text>
</g>
<!-- node_c6b96ffd&#45;&gt;node_221c4ea0 -->
<g id="edge11" class="edge">
<title>node_c6b96ffd&#45;&gt;node_221c4ea0</title>
<path fill="none" stroke="#0072b2" stroke-width="2" d="M669.21,-1831.71C713.35,-1831.71 781,-1831.71 781,-1831.71 781,-1831.71 781,-1397.28 781,-1397.28"/>
<polygon fill="#0072b2" stroke="#0072b2" stroke-width="2" points="784.5,-1397.28 781,-1387.28 777.5,-1397.28 784.5,-1397.28"/>
</g>
<!-- node_59296b1a -->
<g id="node5" class="node">
<title>node_59296b1a</title>
<path fill="#6db33f" stroke="black" d="M674.5,-348C674.5,-348 589.5,-348 589.5,-348 583.5,-348 577.5,-342 577.5,-336 577.5,-336 577.5,-324 577.5,-324 577.5,-318 583.5,-312 589.5,-312 589.5,-312 674.5,-312 674.5,-312 680.5,-312 686.5,-318 686.5,-324 686.5,-324 686.5,-336 686.5,-336 686.5,-342 680.5,-348 674.5,-348"/>
<text text-anchor="middle" x="632" y="-324.95" font-family="Times,serif" font-size="14.00">87: plot_results()</text>
</g>
<!-- node_b279281a -->
<g id="node6" class="node">
<title>node_b279281a</title>
<path fill="#cccccc" stroke="black" d="M420,-348C420,-348 380,-348 380,-348 374,-348 368,-342 368,-336 368,-336 368,-324 368,-324 368,-318 374,-312 380,-312 380,-312 420,-312 420,-312 426,-312 432,-318 432,-324 432,-324 432,-336 432,-336 432,-342 426,-348 420,-348"/>
<text text-anchor="middle" x="400" y="-324.95" font-family="Times,serif" font-size="14.00">94: run()</text>
</g>
<!-- node_b279281a&#45;&gt;node_59296b1a -->
<g id="edge12" class="edge">
<title>node_b279281a&#45;&gt;node_59296b1a</title>
<path fill="none" stroke="#56b4e9" stroke-width="2" d="M432.26,-336C432.26,-336 564.26,-336 564.26,-336"/>
<polygon fill="#56b4e9" stroke="#56b4e9" stroke-width="2" points="564.26,-339.5 574.26,-336 564.26,-332.5 564.26,-339.5"/>
</g>
<!-- node_c451111e -->
<g id="node7" class="node">
<title>node_c451111e</title>
<path fill="#cccccc" stroke="black" d="M684.25,-294C684.25,-294 579.75,-294 579.75,-294 573.75,-294 567.75,-288 567.75,-282 567.75,-282 567.75,-270 567.75,-270 567.75,-264 573.75,-258 579.75,-258 579.75,-258 684.25,-258 684.25,-258 690.25,-258 696.25,-264 696.25,-270 696.25,-270 696.25,-282 696.25,-282 696.25,-288 690.25,-294 684.25,-294"/>
<text text-anchor="middle" x="632" y="-270.95" font-family="Times,serif" font-size="14.00">49: run_simulation()</text>
</g>
<!-- node_b279281a&#45;&gt;node_c451111e -->
<g id="edge13" class="edge">
<title>node_b279281a&#45;&gt;node_c451111e</title>
<path fill="none" stroke="#56b4e9" stroke-width="2" d="M432.13,-324C482.16,-324 573,-324 573,-324 573,-324 573,-307.45 573,-307.45"/>
<polygon fill="#56b4e9" stroke="#56b4e9" stroke-width="2" points="576.5,-307.45 573,-297.45 569.5,-307.45 576.5,-307.45"/>
</g>
<!-- node_acd624b7 -->
<g id="node8" class="node">
<title>node_acd624b7</title>
<path fill="#6db33f" stroke="black" d="M927.12,-294C927.12,-294 812.12,-294 812.12,-294 806.12,-294 800.12,-288 800.12,-282 800.12,-282 800.12,-270 800.12,-270 800.12,-264 806.12,-258 812.12,-258 812.12,-258 927.12,-258 927.12,-258 933.12,-258 939.12,-264 939.12,-270 939.12,-270 939.12,-282 939.12,-282 939.12,-288 933.12,-294 927.12,-294"/>
<text text-anchor="middle" x="869.62" y="-270.95" font-family="Times,serif" font-size="14.00">35: setup_simulation()</text>
</g>
<!-- node_c451111e&#45;&gt;node_acd624b7 -->
<g id="edge14" class="edge">
<title>node_c451111e&#45;&gt;node_acd624b7</title>
<path fill="none" stroke="#d55e00" stroke-width="2" d="M696.62,-267C696.62,-267 786.99,-267 786.99,-267"/>
<polygon fill="#d55e00" stroke="#d55e00" stroke-width="2" points="786.99,-270.5 796.99,-267 786.99,-263.5 786.99,-270.5"/>
</g>
<!-- node_c82b002f -->
<g id="node11" class="node">
<title>node_c82b002f</title>
<path fill="#6db33f" stroke="black" d="M1163.62,-1477C1163.62,-1477 1096.62,-1477 1096.62,-1477 1090.62,-1477 1084.62,-1471 1084.62,-1465 1084.62,-1465 1084.62,-1453 1084.62,-1453 1084.62,-1447 1090.62,-1441 1096.62,-1441 1096.62,-1441 1163.62,-1441 1163.62,-1441 1169.62,-1441 1175.62,-1447 1175.62,-1453 1175.62,-1453 1175.62,-1465 1175.62,-1465 1175.62,-1471 1169.62,-1477 1163.62,-1477"/>
<text text-anchor="middle" x="1130.12" y="-1453.95" font-family="Times,serif" font-size="14.00">31: __init__()</text>
</g>
<!-- node_c451111e&#45;&gt;node_c82b002f -->
<g id="edge15" class="edge">
<title>node_c451111e&#45;&gt;node_c82b002f</title>
<path fill="none" stroke="#d55e00" stroke-width="2" d="M691,-294.46C691,-299.2 691,-303 691,-303 691,-303 984,-303 984,-303 984,-303 984,-1450 984,-1450 984,-1450 1071.26,-1450 1071.26,-1450"/>
<polygon fill="#d55e00" stroke="#d55e00" stroke-width="2" points="1071.26,-1453.5 1081.26,-1450 1071.26,-1446.5 1071.26,-1453.5"/>
</g>
<!-- node_c451111e&#45;&gt;node_c1983094 -->
<g id="edge16" class="edge">
<title>node_c451111e&#45;&gt;node_c1983094</title>
<path fill="none" stroke="#d55e00" stroke-width="2" d="M696.6,-285C716.84,-285 734,-285 734,-285 734,-285 734,-1233.4 734,-1233.4 734,-1233.4 814.06,-1233.4 814.06,-1233.4"/>
<polygon fill="#d55e00" stroke="#d55e00" stroke-width="2" points="814.06,-1236.9 824.06,-1233.4 814.06,-1229.9 814.06,-1236.9"/>
</g>
<!-- node_c451111e&#45;&gt;node_b3dfb935 -->
<g id="edge17" class="edge">
<title>node_c451111e&#45;&gt;node_b3dfb935</title>
<path fill="none" stroke="#d55e00" stroke-width="2" d="M696.7,-276C718.31,-276 737,-276 737,-276 737,-276 737,-1183.2 737,-1183.2 737,-1183.2 792.23,-1183.2 792.23,-1183.2"/>
<polygon fill="#d55e00" stroke="#d55e00" stroke-width="2" points="792.23,-1186.7 802.23,-1183.2 792.23,-1179.7 792.23,-1186.7"/>
</g>
<!-- node_a1791450 -->
<g id="node9" class="node">
<title>node_a1791450</title>
<path fill="#6db33f" stroke="black" d="M899.75,-1086C899.75,-1086 839.5,-1086 839.5,-1086 833.5,-1086 827.5,-1080 827.5,-1074 827.5,-1074 827.5,-1062 827.5,-1062 827.5,-1056 833.5,-1050 839.5,-1050 839.5,-1050 899.75,-1050 899.75,-1050 905.75,-1050 911.75,-1056 911.75,-1062 911.75,-1062 911.75,-1074 911.75,-1074 911.75,-1080 905.75,-1086 899.75,-1086"/>
<text text-anchor="middle" x="869.62" y="-1062.95" font-family="Times,serif" font-size="14.00">6: __init__()</text>
</g>
<!-- node_1850ece9 -->
<g id="node10" class="node">
<title>node_1850ece9</title>
<path fill="#6db33f" stroke="black" d="M1471,-1531C1471,-1531 1299,-1531 1299,-1531 1293,-1531 1287,-1525 1287,-1519 1287,-1519 1287,-1507 1287,-1507 1287,-1501 1293,-1495 1299,-1495 1299,-1495 1471,-1495 1471,-1495 1477,-1495 1483,-1501 1483,-1507 1483,-1507 1483,-1519 1483,-1519 1483,-1525 1477,-1531 1471,-1531"/>
<text text-anchor="middle" x="1385" y="-1507.95" font-family="Times,serif" font-size="14.00">179: GammaForHertzThornton()</text>
</g>
<!-- node_8af144f0 -->
<g id="node12" class="node">
<title>node_8af144f0</title>
<path fill="#cccccc" stroke="black" d="M1219.88,-1531C1219.88,-1531 1040.38,-1531 1040.38,-1531 1034.38,-1531 1028.38,-1525 1028.38,-1519 1028.38,-1519 1028.38,-1507 1028.38,-1507 1028.38,-1501 1034.38,-1495 1040.38,-1495 1040.38,-1495 1219.88,-1495 1219.88,-1495 1225.88,-1495 1231.88,-1501 1231.88,-1507 1231.88,-1507 1231.88,-1519 1231.88,-1519 1231.88,-1525 1225.88,-1531 1219.88,-1531"/>
<text text-anchor="middle" x="1130.12" y="-1507.95" font-family="Times,serif" font-size="14.00">204: compute_boundary_contact()</text>
</g>
<!-- node_8af144f0&#45;&gt;node_1850ece9 -->
<g id="edge18" class="edge">
<title>node_8af144f0&#45;&gt;node_1850ece9</title>
<path fill="none" stroke="#000000" stroke-width="2" d="M1232.32,-1519C1232.32,-1519 1273.48,-1519 1273.48,-1519"/>
<polygon fill="#000000" stroke="#000000" stroke-width="2" points="1273.48,-1522.5 1283.48,-1519 1273.48,-1515.5 1273.48,-1522.5"/>
</g>
<!-- node_e6569c19 -->
<g id="node13" class="node">
<title>node_e6569c19</title>
<path fill="#966f33" stroke="black" d="M1187.62,-1585C1187.62,-1585 1072.62,-1585 1072.62,-1585 1066.62,-1585 1060.62,-1579 1060.62,-1573 1060.62,-1573 1060.62,-1561 1060.62,-1561 1060.62,-1555 1066.62,-1549 1072.62,-1549 1072.62,-1549 1187.62,-1549 1187.62,-1549 1193.62,-1549 1199.62,-1555 1199.62,-1561 1199.62,-1561 1199.62,-1573 1199.62,-1573 1199.62,-1579 1193.62,-1585 1187.62,-1585"/>
<text text-anchor="middle" x="1130.12" y="-1561.95" font-family="Times,serif" font-size="14.00">36: compute_contact()</text>
</g>
<!-- node_e6569c19&#45;&gt;node_1850ece9 -->
<g id="edge19" class="edge">
<title>node_e6569c19&#45;&gt;node_1850ece9</title>
<path fill="none" stroke="#e69f00" stroke-width="2" d="M1200.11,-1567C1275.56,-1567 1385,-1567 1385,-1567 1385,-1567 1385,-1544.31 1385,-1544.31"/>
<polygon fill="#e69f00" stroke="#e69f00" stroke-width="2" points="1388.5,-1544.31 1385,-1534.31 1381.5,-1544.31 1388.5,-1544.31"/>
</g>
<!-- node_f494bab9&#45;&gt;node_c82b002f -->
<g id="edge20" class="edge">
<title>node_f494bab9&#45;&gt;node_c82b002f</title>
<path fill="none" stroke="#e69f00" stroke-width="2" d="M941.5,-1468C941.5,-1468 1071.28,-1468 1071.28,-1468"/>
<polygon fill="#e69f00" stroke="#e69f00" stroke-width="2" points="1071.28,-1471.5 1081.28,-1468 1071.28,-1464.5 1071.28,-1471.5"/>
</g>
<!-- node_e1bfe2d0 -->
<g id="node16" class="node">
<title>node_e1bfe2d0</title>
<path fill="#966f33" stroke="black" d="M429,-1703C429,-1703 371,-1703 371,-1703 365,-1703 359,-1697 359,-1691 359,-1691 359,-1679 359,-1679 359,-1673 365,-1667 371,-1667 371,-1667 429,-1667 429,-1667 435,-1667 441,-1673 441,-1679 441,-1679 441,-1691 441,-1691 441,-1697 435,-1703 429,-1703"/>
<text text-anchor="middle" x="400" y="-1679.95" font-family="Times,serif" font-size="14.00">0: (global)()</text>
</g>
<!-- node_426f5f30 -->
<g id="node17" class="node">
<title>node_426f5f30</title>
<path fill="#cccccc" stroke="black" d="M660.25,-1703C660.25,-1703 603.75,-1703 603.75,-1703 597.75,-1703 591.75,-1697 591.75,-1691 591.75,-1691 591.75,-1679 591.75,-1679 591.75,-1673 597.75,-1667 603.75,-1667 603.75,-1667 660.25,-1667 660.25,-1667 666.25,-1667 672.25,-1673 672.25,-1679 672.25,-1679 672.25,-1691 672.25,-1691 672.25,-1697 666.25,-1703 660.25,-1703"/>
<text text-anchor="middle" x="632" y="-1679.95" font-family="Times,serif" font-size="14.00">209: main()</text>
</g>
<!-- node_e1bfe2d0&#45;&gt;node_426f5f30 -->
<g id="edge21" class="edge">
<title>node_e1bfe2d0&#45;&gt;node_426f5f30</title>
<path fill="none" stroke="#000000" stroke-width="2" d="M441.48,-1685C441.48,-1685 578.24,-1685 578.24,-1685"/>
<polygon fill="#000000" stroke="#000000" stroke-width="2" points="578.24,-1688.5 588.24,-1685 578.24,-1681.5 578.24,-1688.5"/>
</g>
<!-- node_426f5f30&#45;&gt;node_a1791450 -->
<g id="edge22" class="edge">
<title>node_426f5f30&#45;&gt;node_a1791450</title>
<path fill="none" stroke="#000000" stroke-width="2" d="M672.5,-1670.6C677,-1670.6 680,-1670.6 680,-1670.6 680,-1670.6 680,-1078.8 680,-1078.8 680,-1078.8 814.04,-1078.8 814.04,-1078.8"/>
<polygon fill="#000000" stroke="#000000" stroke-width="2" points="814.04,-1082.3 824.04,-1078.8 814.04,-1075.3 814.04,-1082.3"/>
</g>
<!-- node_426f5f30&#45;&gt;node_f494bab9 -->
<g id="edge23" class="edge">
<title>node_426f5f30&#45;&gt;node_f494bab9</title>
<path fill="none" stroke="#000000" stroke-width="2" d="M672.61,-1695.8C724.86,-1695.8 809,-1695.8 809,-1695.8 809,-1695.8 809,-1490.22 809,-1490.22"/>
<polygon fill="#000000" stroke="#000000" stroke-width="2" points="812.5,-1490.22 809,-1480.22 805.5,-1490.22 812.5,-1490.22"/>
</g>
<!-- node_426f5f30&#45;&gt;node_b612a394 -->
<g id="edge24" class="edge">
<title>node_426f5f30&#45;&gt;node_b612a394</title>
<path fill="none" stroke="#000000" stroke-width="2" d="M672.62,-1685C708.44,-1685 755,-1685 755,-1685 755,-1685 755,-493 755,-493 755,-493 814.24,-493 814.24,-493"/>
<polygon fill="#000000" stroke="#000000" stroke-width="2" points="814.24,-496.5 824.24,-493 814.24,-489.5 814.24,-496.5"/>
</g>
<!-- node_b6213051 -->
<g id="node18" class="node">
<title>node_b6213051</title>
<path fill="#cccccc" stroke="black" d="M906.88,-1703C906.88,-1703 832.38,-1703 832.38,-1703 826.38,-1703 820.38,-1697 820.38,-1691 820.38,-1691 820.38,-1679 820.38,-1679 820.38,-1673 826.38,-1667 832.38,-1667 832.38,-1667 906.88,-1667 906.88,-1667 912.88,-1667 918.88,-1673 918.88,-1679 918.88,-1679 918.88,-1691 918.88,-1691 918.88,-1697 912.88,-1703 906.88,-1703"/>
<text text-anchor="middle" x="869.62" y="-1679.95" font-family="Times,serif" font-size="14.00">79: plot_field()</text>
</g>
<!-- node_426f5f30&#45;&gt;node_b6213051 -->
<g id="edge25" class="edge">
<title>node_426f5f30&#45;&gt;node_b6213051</title>
<path fill="none" stroke="#000000" stroke-width="2" d="M672.58,-1699.4C672.58,-1699.4 807.13,-1699.4 807.13,-1699.4"/>
<polygon fill="#000000" stroke="#000000" stroke-width="2" points="807.13,-1702.9 817.13,-1699.4 807.13,-1695.9 807.13,-1702.9"/>
</g>
<!-- node_426f5f30&#45;&gt;node_c1983094 -->
<g id="edge26" class="edge">
<title>node_426f5f30&#45;&gt;node_c1983094</title>
<path fill="none" stroke="#000000" stroke-width="2" d="M672.7,-1681.4C681.38,-1681.4 688,-1681.4 688,-1681.4 688,-1681.4 688,-1247 688,-1247 688,-1247 814.01,-1247 814.01,-1247"/>
<polygon fill="#000000" stroke="#000000" stroke-width="2" points="814.01,-1250.5 824.01,-1247 814.01,-1243.5 814.01,-1250.5"/>
</g>
<!-- node_426f5f30&#45;&gt;node_b3dfb935 -->
<g id="edge27" class="edge">
<title>node_426f5f30&#45;&gt;node_b3dfb935</title>
<path fill="none" stroke="#000000" stroke-width="2" d="M672.68,-1674.2C678.74,-1674.2 683,-1674.2 683,-1674.2 683,-1674.2 683,-1197.6 683,-1197.6 683,-1197.6 792.37,-1197.6 792.37,-1197.6"/>
<polygon fill="#000000" stroke="#000000" stroke-width="2" points="792.37,-1201.1 802.37,-1197.6 792.37,-1194.1 792.37,-1201.1"/>
</g>
<!-- node_426f5f30&#45;&gt;node_221c4ea0 -->
<g id="edge28" class="edge">
<title>node_426f5f30&#45;&gt;node_221c4ea0</title>
<path fill="none" stroke="#000000" stroke-width="2" d="M672.4,-1692.2C714.07,-1692.2 773,-1692.2 773,-1692.2 773,-1692.2 773,-1397.5 773,-1397.5"/>
<polygon fill="#000000" stroke="#000000" stroke-width="2" points="776.5,-1397.5 773,-1387.5 769.5,-1397.5 776.5,-1397.5"/>
</g>
<!-- node_cd95680d -->
<g id="node19" class="node">
<title>node_cd95680d</title>
<path fill="#6db33f" stroke="black" d="M1168.88,-1703C1168.88,-1703 1091.38,-1703 1091.38,-1703 1085.38,-1703 1079.38,-1697 1079.38,-1691 1079.38,-1691 1079.38,-1679 1079.38,-1679 1079.38,-1673 1085.38,-1667 1091.38,-1667 1091.38,-1667 1168.88,-1667 1168.88,-1667 1174.88,-1667 1180.88,-1673 1180.88,-1679 1180.88,-1679 1180.88,-1691 1180.88,-1691 1180.88,-1697 1174.88,-1703 1168.88,-1703"/>
<text text-anchor="middle" x="1130.12" y="-1679.95" font-family="Times,serif" font-size="14.00">49: plot_force()</text>
</g>
<!-- node_b6213051&#45;&gt;node_cd95680d -->
<g id="edge29" class="edge">
<title>node_b6213051&#45;&gt;node_cd95680d</title>
<path fill="none" stroke="#e69f00" stroke-width="2" d="M919.24,-1679C919.24,-1679 1065.89,-1679 1065.89,-1679"/>
<polygon fill="#e69f00" stroke="#e69f00" stroke-width="2" points="1065.89,-1682.5 1075.89,-1679 1065.89,-1675.5 1065.89,-1682.5"/>
</g>
<!-- node_e1b38d26 -->
<g id="node20" class="node">
<title>node_e1b38d26</title>
<path fill="#6db33f" stroke="black" d="M1176.75,-1757C1176.75,-1757 1083.5,-1757 1083.5,-1757 1077.5,-1757 1071.5,-1751 1071.5,-1745 1071.5,-1745 1071.5,-1733 1071.5,-1733 1071.5,-1727 1077.5,-1721 1083.5,-1721 1083.5,-1721 1176.75,-1721 1176.75,-1721 1182.75,-1721 1188.75,-1727 1188.75,-1733 1188.75,-1733 1188.75,-1745 1188.75,-1745 1188.75,-1751 1182.75,-1757 1176.75,-1757"/>
<text text-anchor="middle" x="1130.12" y="-1733.95" font-family="Times,serif" font-size="14.00">18: plot_velocity()</text>
</g>
<!-- node_b6213051&#45;&gt;node_e1b38d26 -->
<g id="edge30" class="edge">
<title>node_b6213051&#45;&gt;node_e1b38d26</title>
<path fill="none" stroke="#e69f00" stroke-width="2" d="M919.34,-1691C980.12,-1691 1075,-1691 1075,-1691 1075,-1691 1075,-1707.55 1075,-1707.55"/>
<polygon fill="#e69f00" stroke="#e69f00" stroke-width="2" points="1071.5,-1707.55 1075,-1717.55 1078.5,-1707.55 1071.5,-1707.55"/>
</g>
<!-- node_6ac47bcd -->
<g id="node24" class="node">
<title>node_6ac47bcd</title>
<path fill="#966f33" stroke="black" d="M429,-1349C429,-1349 371,-1349 371,-1349 365,-1349 359,-1343 359,-1337 359,-1337 359,-1325 359,-1325 359,-1319 365,-1313 371,-1313 371,-1313 429,-1313 429,-1313 435,-1313 441,-1319 441,-1325 441,-1325 441,-1337 441,-1337 441,-1343 435,-1349 429,-1349"/>
<text text-anchor="middle" x="400" y="-1325.95" font-family="Times,serif" font-size="14.00">0: (global)()</text>
</g>
<!-- node_74d1e12a -->
<g id="node25" class="node">
<title>node_74d1e12a</title>
<path fill="#cccccc" stroke="black" d="M656.88,-1349C656.88,-1349 607.12,-1349 607.12,-1349 601.12,-1349 595.12,-1343 595.12,-1337 595.12,-1337 595.12,-1325 595.12,-1325 595.12,-1319 601.12,-1313 607.12,-1313 607.12,-1313 656.88,-1313 656.88,-1313 662.88,-1313 668.88,-1319 668.88,-1325 668.88,-1325 668.88,-1337 668.88,-1337 668.88,-1343 662.88,-1349 656.88,-1349"/>
<text text-anchor="middle" x="632" y="-1325.95" font-family="Times,serif" font-size="14.00">18: main()</text>
</g>
<!-- node_6ac47bcd&#45;&gt;node_74d1e12a -->
<g id="edge31" class="edge">
<title>node_6ac47bcd&#45;&gt;node_74d1e12a</title>
<path fill="none" stroke="#0072b2" stroke-width="2" d="M441.48,-1331C441.48,-1331 581.69,-1331 581.69,-1331"/>
<polygon fill="#0072b2" stroke="#0072b2" stroke-width="2" points="581.69,-1334.5 591.69,-1331 581.69,-1327.5 581.69,-1334.5"/>
</g>
<!-- node_74d1e12a&#45;&gt;node_a1791450 -->
<g id="edge32" class="edge">
<title>node_74d1e12a&#45;&gt;node_a1791450</title>
<path fill="none" stroke="#56b4e9" stroke-width="2" d="M669.13,-1318C674.36,-1318 678,-1318 678,-1318 678,-1318 678,-1071.6 678,-1071.6 678,-1071.6 814.07,-1071.6 814.07,-1071.6"/>
<polygon fill="#56b4e9" stroke="#56b4e9" stroke-width="2" points="814.07,-1075.1 824.07,-1071.6 814.07,-1068.1 814.07,-1075.1"/>
</g>
<!-- node_74d1e12a&#45;&gt;node_f494bab9 -->
<g id="edge33" class="edge">
<title>node_74d1e12a&#45;&gt;node_f494bab9</title>
<path fill="none" stroke="#56b4e9" stroke-width="2" d="M632,-1349.34C632,-1384.73 632,-1459 632,-1459 632,-1459 784.98,-1459 784.98,-1459"/>
<polygon fill="#56b4e9" stroke="#56b4e9" stroke-width="2" points="784.98,-1462.5 794.98,-1459 784.98,-1455.5 784.98,-1462.5"/>
</g>
<!-- node_74d1e12a&#45;&gt;node_b612a394 -->
<g id="edge34" class="edge">
<title>node_74d1e12a&#45;&gt;node_b612a394</title>
<path fill="none" stroke="#56b4e9" stroke-width="2" d="M669.31,-1323C704.54,-1323 752,-1323 752,-1323 752,-1323 752,-488.5 752,-488.5 752,-488.5 814.13,-488.5 814.13,-488.5"/>
<polygon fill="#56b4e9" stroke="#56b4e9" stroke-width="2" points="814.13,-492 824.13,-488.5 814.13,-485 814.13,-492"/>
</g>
<!-- node_74d1e12a&#45;&gt;node_b6213051 -->
<g id="edge35" class="edge">
<title>node_74d1e12a&#45;&gt;node_b6213051</title>
<path fill="none" stroke="#56b4e9" stroke-width="2" d="M669.02,-1343C672.64,-1343 675,-1343 675,-1343 675,-1343 675,-1688.6 675,-1688.6 675,-1688.6 806.98,-1688.6 806.98,-1688.6"/>
<polygon fill="#56b4e9" stroke="#56b4e9" stroke-width="2" points="806.98,-1692.1 816.98,-1688.6 806.98,-1685.1 806.98,-1692.1"/>
</g>
<!-- node_74d1e12a&#45;&gt;node_c1983094 -->
<g id="edge36" class="edge">
<title>node_74d1e12a&#45;&gt;node_c1983094</title>
<path fill="none" stroke="#56b4e9" stroke-width="2" d="M669.19,-1333C736.12,-1333 870,-1333 870,-1333 870,-1333 870,-1279.47 870,-1279.47"/>
<polygon fill="#56b4e9" stroke="#56b4e9" stroke-width="2" points="873.5,-1279.47 870,-1269.47 866.5,-1279.47 873.5,-1279.47"/>
</g>
<!-- node_74d1e12a&#45;&gt;node_b3dfb935 -->
<g id="edge37" class="edge">
<title>node_74d1e12a&#45;&gt;node_b3dfb935</title>
<path fill="none" stroke="#56b4e9" stroke-width="2" d="M669.14,-1328C723.93,-1328 820,-1328 820,-1328 820,-1328 820,-1225.38 820,-1225.38"/>
<polygon fill="#56b4e9" stroke="#56b4e9" stroke-width="2" points="823.5,-1225.38 820,-1215.38 816.5,-1225.38 823.5,-1225.38"/>
</g>
<!-- node_74d1e12a&#45;&gt;node_221c4ea0 -->
<g id="edge38" class="edge">
<title>node_74d1e12a&#45;&gt;node_221c4ea0</title>
<path fill="none" stroke="#56b4e9" stroke-width="2" d="M669.17,-1338C716.99,-1338 794,-1338 794,-1338 794,-1338 794,-1338.98 794,-1338.98"/>
<polygon fill="#56b4e9" stroke="#56b4e9" stroke-width="2" points="790.5,-1334.77 794,-1344.77 797.5,-1334.77 790.5,-1334.77"/>
</g>
<!-- node_5814dbad -->
<g id="node26" class="node">
<title>node_5814dbad</title>
<path fill="#966f33" stroke="black" d="M429,-114C429,-114 371,-114 371,-114 365,-114 359,-108 359,-102 359,-102 359,-90 359,-90 359,-84 365,-78 371,-78 371,-78 429,-78 429,-78 435,-78 441,-84 441,-90 441,-90 441,-102 441,-102 441,-108 435,-114 429,-114"/>
<text text-anchor="middle" x="400" y="-90.95" font-family="Times,serif" font-size="14.00">0: (global)()</text>
</g>
<!-- node_5814dbad&#45;&gt;node_c451111e -->
<g id="edge39" class="edge">
<title>node_5814dbad&#45;&gt;node_c451111e</title>
<path fill="none" stroke="#0072b2" stroke-width="2" d="M436,-114.25C436,-160.01 436,-276 436,-276 436,-276 554.25,-276 554.25,-276"/>
<polygon fill="#0072b2" stroke="#0072b2" stroke-width="2" points="554.25,-279.5 564.25,-276 554.25,-272.5 554.25,-279.5"/>
</g>
<!-- node_8491d890 -->
<g id="node29" class="node">
<title>node_8491d890</title>
<path fill="#cccccc" stroke="black" d="M718,-60C718,-60 546,-60 546,-60 540,-60 534,-54 534,-48 534,-48 534,-36 534,-36 534,-30 540,-24 546,-24 546,-24 718,-24 718,-24 724,-24 730,-30 730,-36 730,-36 730,-48 730,-48 730,-54 724,-60 718,-60"/>
<text text-anchor="middle" x="632" y="-36.95" font-family="Times,serif" font-size="14.00">127: plot_combined_animation()</text>
</g>
<!-- node_5814dbad&#45;&gt;node_8491d890 -->
<g id="edge40" class="edge">
<title>node_5814dbad&#45;&gt;node_8491d890</title>
<path fill="none" stroke="#0072b2" stroke-width="2" d="M441.26,-90C485.97,-90 551,-90 551,-90 551,-90 551,-73.45 551,-73.45"/>
<polygon fill="#0072b2" stroke="#0072b2" stroke-width="2" points="554.5,-73.45 551,-63.45 547.5,-73.45 554.5,-73.45"/>
</g>
<!-- node_be0c0c0e -->
<g id="node30" class="node">
<title>node_be0c0c0e</title>
<path fill="#cccccc" stroke="black" d="M677.88,-114C677.88,-114 586.12,-114 586.12,-114 580.12,-114 574.12,-108 574.12,-102 574.12,-102 574.12,-90 574.12,-90 574.12,-84 580.12,-78 586.12,-78 586.12,-78 677.88,-78 677.88,-78 683.88,-78 689.88,-84 689.88,-90 689.88,-90 689.88,-102 689.88,-102 689.88,-108 683.88,-114 677.88,-114"/>
<text text-anchor="middle" x="632" y="-90.95" font-family="Times,serif" font-size="14.00">100: plot_results()</text>
</g>
<!-- node_5814dbad&#45;&gt;node_be0c0c0e -->
<g id="edge41" class="edge">
<title>node_5814dbad&#45;&gt;node_be0c0c0e</title>
<path fill="none" stroke="#0072b2" stroke-width="2" d="M441.48,-102C441.48,-102 560.86,-102 560.86,-102"/>
<polygon fill="#0072b2" stroke="#0072b2" stroke-width="2" points="560.86,-105.5 570.86,-102 560.86,-98.5 560.86,-105.5"/>
</g>
<!-- node_6cb0585d -->
<g id="node27" class="node">
<title>node_6cb0585d</title>
<path fill="#6db33f" stroke="black" d="M946.62,-60C946.62,-60 792.62,-60 792.62,-60 786.62,-60 780.62,-54 780.62,-48 780.62,-48 780.62,-36 780.62,-36 780.62,-30 786.62,-24 792.62,-24 792.62,-24 946.62,-24 946.62,-24 952.62,-24 958.62,-30 958.62,-36 958.62,-36 958.62,-48 958.62,-48 958.62,-54 952.62,-60 946.62,-60"/>
<text text-anchor="middle" x="869.62" y="-36.95" font-family="Times,serif" font-size="14.00">80: ensure_output_directory()</text>
</g>
<!-- node_467d748c -->
<g id="node28" class="node">
<title>node_467d748c</title>
<path fill="#6db33f" stroke="black" d="M943.62,-114C943.62,-114 795.62,-114 795.62,-114 789.62,-114 783.62,-108 783.62,-102 783.62,-102 783.62,-90 783.62,-90 783.62,-84 789.62,-78 795.62,-78 795.62,-78 943.62,-78 943.62,-78 949.62,-78 955.62,-84 955.62,-90 955.62,-90 955.62,-102 955.62,-102 955.62,-108 949.62,-114 943.62,-114"/>
<text text-anchor="middle" x="869.62" y="-90.95" font-family="Times,serif" font-size="14.00">58: get_analytical_solution()</text>
</g>
<!-- node_8491d890&#45;&gt;node_6cb0585d -->
<g id="edge42" class="edge">
<title>node_8491d890&#45;&gt;node_6cb0585d</title>
<path fill="none" stroke="#000000" stroke-width="2" d="M730.37,-36C730.37,-36 767.43,-36 767.43,-36"/>
<polygon fill="#000000" stroke="#000000" stroke-width="2" points="767.43,-39.5 777.43,-36 767.43,-32.5 767.43,-39.5"/>
</g>
<!-- node_8491d890&#45;&gt;node_467d748c -->
<g id="edge43" class="edge">
<title>node_8491d890&#45;&gt;node_467d748c</title>
<path fill="none" stroke="#000000" stroke-width="2" d="M717,-60.3C717,-72.76 717,-87 717,-87 717,-87 770.47,-87 770.47,-87"/>
<polygon fill="#000000" stroke="#000000" stroke-width="2" points="770.47,-90.5 780.47,-87 770.47,-83.5 770.47,-90.5"/>
</g>
<!-- node_be0c0c0e&#45;&gt;node_6cb0585d -->
<g id="edge44" class="edge">
<title>node_be0c0c0e&#45;&gt;node_6cb0585d</title>
<path fill="none" stroke="#d55e00" stroke-width="2" d="M690.16,-96C724.77,-96 762,-96 762,-96 762,-96 762,-48 762,-48 762,-48 767.23,-48 767.23,-48"/>
<polygon fill="#d55e00" stroke="#d55e00" stroke-width="2" points="767.23,-51.5 777.23,-48 767.23,-44.5 767.23,-51.5"/>
</g>
<!-- node_be0c0c0e&#45;&gt;node_467d748c -->
<g id="edge45" class="edge">
<title>node_be0c0c0e&#45;&gt;node_467d748c</title>
<path fill="none" stroke="#d55e00" stroke-width="2" d="M690.13,-105C690.13,-105 770.31,-105 770.31,-105"/>
<polygon fill="#d55e00" stroke="#d55e00" stroke-width="2" points="770.31,-108.5 780.31,-105 770.31,-101.5 770.31,-108.5"/>
</g>
<!-- node_2318966a -->
<g id="node31" class="node">
<title>node_2318966a</title>
<path fill="#966f33" stroke="black" d="M689.5,-168C689.5,-168 574.5,-168 574.5,-168 568.5,-168 562.5,-162 562.5,-156 562.5,-156 562.5,-144 562.5,-144 562.5,-138 568.5,-132 574.5,-132 574.5,-132 689.5,-132 689.5,-132 695.5,-132 701.5,-138 701.5,-144 701.5,-144 701.5,-156 701.5,-156 701.5,-162 695.5,-168 689.5,-168"/>
<text text-anchor="middle" x="632" y="-144.95" font-family="Times,serif" font-size="14.00">25: setup_simulation()</text>
</g>
<!-- node_2318966a&#45;&gt;node_a1791450 -->
<g id="edge46" class="edge">
<title>node_2318966a&#45;&gt;node_a1791450</title>
<path fill="none" stroke="#56b4e9" stroke-width="2" d="M701.96,-144C723.18,-144 741,-144 741,-144 741,-144 741,-1057.2 741,-1057.2 741,-1057.2 814.12,-1057.2 814.12,-1057.2"/>
<polygon fill="#56b4e9" stroke="#56b4e9" stroke-width="2" points="814.12,-1060.7 824.12,-1057.2 814.12,-1053.7 814.12,-1060.7"/>
</g>
<!-- node_2318966a&#45;&gt;node_b612a394 -->
<g id="edge47" class="edge">
<title>node_2318966a&#45;&gt;node_b612a394</title>
<path fill="none" stroke="#56b4e9" stroke-width="2" d="M701.89,-156C706.29,-156 709,-156 709,-156 709,-156 709,-470.5 709,-470.5 709,-470.5 813.98,-470.5 813.98,-470.5"/>
<polygon fill="#56b4e9" stroke="#56b4e9" stroke-width="2" points="813.98,-474 823.98,-470.5 813.98,-467 813.98,-474"/>
</g>
<!-- node_9095b11d -->
<g id="node32" class="node">
<title>node_9095b11d</title>
<path fill="#966f33" stroke="black" d="M429,-1264C429,-1264 371,-1264 371,-1264 365,-1264 359,-1258 359,-1252 359,-1252 359,-1240 359,-1240 359,-1234 365,-1228 371,-1228 371,-1228 429,-1228 429,-1228 435,-1228 441,-1234 441,-1240 441,-1240 441,-1252 441,-1252 441,-1258 435,-1264 429,-1264"/>
<text text-anchor="middle" x="400" y="-1240.95" font-family="Times,serif" font-size="14.00">0: (global)()</text>
</g>
<!-- node_4086e009 -->
<g id="node33" class="node">
<title>node_4086e009</title>
<path fill="#cccccc" stroke="black" d="M656.88,-1264C656.88,-1264 607.12,-1264 607.12,-1264 601.12,-1264 595.12,-1258 595.12,-1252 595.12,-1252 595.12,-1240 595.12,-1240 595.12,-1234 601.12,-1228 607.12,-1228 607.12,-1228 656.88,-1228 656.88,-1228 662.88,-1228 668.88,-1234 668.88,-1240 668.88,-1240 668.88,-1252 668.88,-1252 668.88,-1258 662.88,-1264 656.88,-1264"/>
<text text-anchor="middle" x="632" y="-1240.95" font-family="Times,serif" font-size="14.00">25: main()</text>
</g>
<!-- node_9095b11d&#45;&gt;node_4086e009 -->
<g id="edge48" class="edge">
<title>node_9095b11d&#45;&gt;node_4086e009</title>
<path fill="none" stroke="#0072b2" stroke-width="2" d="M441.48,-1246C441.48,-1246 581.69,-1246 581.69,-1246"/>
<polygon fill="#0072b2" stroke="#0072b2" stroke-width="2" points="581.69,-1249.5 591.69,-1246 581.69,-1242.5 581.69,-1249.5"/>
</g>
<!-- node_4086e009&#45;&gt;node_a1791450 -->
<g id="edge49" class="edge">
<title>node_4086e009&#45;&gt;node_a1791450</title>
<path fill="none" stroke="#e69f00" stroke-width="2" d="M632,-1227.59C632,-1181.42 632,-1064.4 632,-1064.4 632,-1064.4 814.12,-1064.4 814.12,-1064.4"/>
<polygon fill="#e69f00" stroke="#e69f00" stroke-width="2" points="814.12,-1067.9 824.12,-1064.4 814.12,-1060.9 814.12,-1067.9"/>
</g>
<!-- node_4086e009&#45;&gt;node_f494bab9 -->
<g id="edge50" class="edge">
<title>node_4086e009&#45;&gt;node_f494bab9</title>
<path fill="none" stroke="#e69f00" stroke-width="2" d="M669.03,-1257.2C684.52,-1257.2 699,-1257.2 699,-1257.2 699,-1257.2 699,-1450 699,-1450 699,-1450 784.73,-1450 784.73,-1450"/>
<polygon fill="#e69f00" stroke="#e69f00" stroke-width="2" points="784.73,-1453.5 794.73,-1450 784.73,-1446.5 784.73,-1453.5"/>
</g>
<!-- node_4086e009&#45;&gt;node_b612a394 -->
<g id="edge51" class="edge">
<title>node_4086e009&#45;&gt;node_b612a394</title>
<path fill="none" stroke="#e69f00" stroke-width="2" d="M669.34,-1236.8C703.25,-1236.8 748,-1236.8 748,-1236.8 748,-1236.8 748,-484 748,-484 748,-484 814.06,-484 814.06,-484"/>
<polygon fill="#e69f00" stroke="#e69f00" stroke-width="2" points="814.06,-487.5 824.06,-484 814.06,-480.5 814.06,-487.5"/>
</g>
<!-- node_4086e009&#45;&gt;node_b6213051 -->
<g id="edge52" class="edge">
<title>node_4086e009&#45;&gt;node_b6213051</title>
<path fill="none" stroke="#e69f00" stroke-width="2" d="M669.14,-1260.6C682.34,-1260.6 694,-1260.6 694,-1260.6 694,-1260.6 694,-1677.8 694,-1677.8 694,-1677.8 807.21,-1677.8 807.21,-1677.8"/>
<polygon fill="#e69f00" stroke="#e69f00" stroke-width="2" points="807.21,-1681.3 817.21,-1677.8 807.21,-1674.3 807.21,-1681.3"/>
</g>
<!-- node_4086e009&#45;&gt;node_c1983094 -->
<g id="edge53" class="edge">
<title>node_4086e009&#45;&gt;node_c1983094</title>
<path fill="none" stroke="#e69f00" stroke-width="2" d="M669.13,-1243.6C669.13,-1243.6 814.12,-1243.6 814.12,-1243.6"/>
<polygon fill="#e69f00" stroke="#e69f00" stroke-width="2" points="814.12,-1247.1 824.12,-1243.6 814.12,-1240.1 814.12,-1247.1"/>
</g>
<!-- node_4086e009&#45;&gt;node_b3dfb935 -->
<g id="edge54" class="edge">
<title>node_4086e009&#45;&gt;node_b3dfb935</title>
<path fill="none" stroke="#e69f00" stroke-width="2" d="M669.06,-1240.2C722.02,-1240.2 813,-1240.2 813,-1240.2 813,-1240.2 813,-1225.29 813,-1225.29"/>
<polygon fill="#e69f00" stroke="#e69f00" stroke-width="2" points="816.5,-1225.29 813,-1215.29 809.5,-1225.29 816.5,-1225.29"/>
</g>
<!-- node_4086e009&#45;&gt;node_221c4ea0 -->
<g id="edge55" class="edge">
<title>node_4086e009&#45;&gt;node_221c4ea0</title>
<path fill="none" stroke="#e69f00" stroke-width="2" d="M669.33,-1253.8C714.04,-1253.8 783,-1253.8 783,-1253.8 783,-1253.8 783,-1334.7 783,-1334.7"/>
<polygon fill="#e69f00" stroke="#e69f00" stroke-width="2" points="779.5,-1334.7 783,-1344.7 786.5,-1334.7 779.5,-1334.7"/>
</g>
<!-- node_04b15ef1 -->
<g id="node34" class="node">
<title>node_04b15ef1</title>
<path fill="#966f33" stroke="black" d="M162,-621C162,-621 104,-621 104,-621 98,-621 92,-615 92,-609 92,-609 92,-597 92,-597 92,-591 98,-585 104,-585 104,-585 162,-585 162,-585 168,-585 174,-591 174,-597 174,-597 174,-609 174,-609 174,-615 168,-621 162,-621"/>
<text text-anchor="middle" x="133" y="-597.95" font-family="Times,serif" font-size="14.00">0: (global)()</text>
</g>
<!-- node_04b15ef1&#45;&gt;node_b279281a -->
<g id="edge56" class="edge">
<title>node_04b15ef1&#45;&gt;node_b279281a</title>
<path fill="none" stroke="#e69f00" stroke-width="2" d="M174.43,-588.5C249.42,-588.5 400,-588.5 400,-588.5 400,-588.5 400,-361.2 400,-361.2"/>
<polygon fill="#e69f00" stroke="#e69f00" stroke-width="2" points="403.5,-361.2 400,-351.2 396.5,-361.2 403.5,-361.2"/>
</g>
<!-- node_b0a37e94 -->
<g id="node37" class="node">
<title>node_b0a37e94</title>
<path fill="#cccccc" stroke="black" d="M486,-628C486,-628 314,-628 314,-628 308,-628 302,-622 302,-616 302,-616 302,-604 302,-604 302,-598 308,-592 314,-592 314,-592 486,-592 486,-592 492,-592 498,-598 498,-604 498,-604 498,-616 498,-616 498,-622 492,-628 486,-628"/>
<text text-anchor="middle" x="400" y="-604.95" font-family="Times,serif" font-size="14.00">158: plot_combined_animation()</text>
</g>
<!-- node_04b15ef1&#45;&gt;node_b0a37e94 -->
<g id="edge57" class="edge">
<title>node_04b15ef1&#45;&gt;node_b0a37e94</title>
<path fill="none" stroke="#e69f00" stroke-width="2" d="M174.43,-606.5C174.43,-606.5 288.58,-606.5 288.58,-606.5"/>
<polygon fill="#e69f00" stroke="#e69f00" stroke-width="2" points="288.58,-610 298.58,-606.5 288.58,-603 288.58,-610"/>
</g>
<!-- node_10967948 -->
<g id="node35" class="node">
<title>node_10967948</title>
<path fill="#6db33f" stroke="black" d="M712.38,-628C712.38,-628 551.62,-628 551.62,-628 545.62,-628 539.62,-622 539.62,-616 539.62,-616 539.62,-604 539.62,-604 539.62,-598 545.62,-592 551.62,-592 551.62,-592 712.38,-592 712.38,-592 718.38,-592 724.38,-598 724.38,-604 724.38,-604 724.38,-616 724.38,-616 724.38,-622 718.38,-628 712.38,-628"/>
<text text-anchor="middle" x="632" y="-604.95" font-family="Times,serif" font-size="14.00">111: ensure_output_directory()</text>
</g>
<!-- node_5b8d09f3 -->
<g id="node36" class="node">
<title>node_5b8d09f3</title>
<path fill="#6db33f" stroke="black" d="M709.38,-682C709.38,-682 554.62,-682 554.62,-682 548.62,-682 542.62,-676 542.62,-670 542.62,-670 542.62,-658 542.62,-658 542.62,-652 548.62,-646 554.62,-646 554.62,-646 709.38,-646 709.38,-646 715.38,-646 721.38,-652 721.38,-658 721.38,-658 721.38,-670 721.38,-670 721.38,-676 715.38,-682 709.38,-682"/>
<text text-anchor="middle" x="632" y="-658.95" font-family="Times,serif" font-size="14.00">101: get_analytical_solution()</text>
</g>
<!-- node_b0a37e94&#45;&gt;node_10967948 -->
<g id="edge58" class="edge">
<title>node_b0a37e94&#45;&gt;node_10967948</title>
<path fill="none" stroke="#f0e442" stroke-width="2" d="M498.39,-604C498.39,-604 526.34,-604 526.34,-604"/>
<polygon fill="#f0e442" stroke="#f0e442" stroke-width="2" points="526.34,-607.5 536.34,-604 526.34,-600.5 526.34,-607.5"/>
</g>
<!-- node_2393caa1 -->
<g id="node38" class="node">
<title>node_2393caa1</title>
<path fill="#966f33" stroke="black" d="M445.88,-682C445.88,-682 354.12,-682 354.12,-682 348.12,-682 342.12,-676 342.12,-670 342.12,-670 342.12,-658 342.12,-658 342.12,-652 348.12,-646 354.12,-646 354.12,-646 445.88,-646 445.88,-646 451.88,-646 457.88,-652 457.88,-658 457.88,-658 457.88,-670 457.88,-670 457.88,-676 451.88,-682 445.88,-682"/>
<text text-anchor="middle" x="400" y="-658.95" font-family="Times,serif" font-size="14.00">121: plot_results()</text>
</g>
<!-- node_2393caa1&#45;&gt;node_10967948 -->
<g id="edge59" class="edge">
<title>node_2393caa1&#45;&gt;node_10967948</title>
<path fill="none" stroke="#e69f00" stroke-width="2" d="M458.34,-658C487.23,-658 516,-658 516,-658 516,-658 516,-616 516,-616 516,-616 526.17,-616 526.17,-616"/>
<polygon fill="#e69f00" stroke="#e69f00" stroke-width="2" points="526.17,-619.5 536.17,-616 526.17,-612.5 526.17,-619.5"/>
</g>
<!-- node_2393caa1&#45;&gt;node_5b8d09f3 -->
<g id="edge60" class="edge">
<title>node_2393caa1&#45;&gt;node_5b8d09f3</title>
<path fill="none" stroke="#e69f00" stroke-width="2" d="M458.24,-670C458.24,-670 529.5,-670 529.5,-670"/>
<polygon fill="#e69f00" stroke="#e69f00" stroke-width="2" points="529.5,-673.5 539.5,-670 529.5,-666.5 529.5,-673.5"/>
</g>
<!-- node_1c0ee571 -->
<g id="node39" class="node">
<title>node_1c0ee571</title>
<path fill="#966f33" stroke="black" d="M452.25,-736C452.25,-736 347.75,-736 347.75,-736 341.75,-736 335.75,-730 335.75,-724 335.75,-724 335.75,-712 335.75,-712 335.75,-706 341.75,-700 347.75,-700 347.75,-700 452.25,-700 452.25,-700 458.25,-700 464.25,-706 464.25,-712 464.25,-712 464.25,-724 464.25,-724 464.25,-730 458.25,-736 452.25,-736"/>
<text text-anchor="middle" x="400" y="-712.95" font-family="Times,serif" font-size="14.00">60: run_simulation()</text>
</g>
<!-- node_1c0ee571&#45;&gt;node_c82b002f -->
<g id="edge61" class="edge">
<title>node_1c0ee571&#45;&gt;node_c82b002f</title>
<path fill="none" stroke="#e69f00" stroke-width="2" d="M458,-736.39C458,-799.73 458,-1005 458,-1005 458,-1005 1130,-1005 1130,-1005 1130,-1005 1130,-1427.61 1130,-1427.61"/>
<polygon fill="#e69f00" stroke="#e69f00" stroke-width="2" points="1126.5,-1427.61 1130,-1437.61 1133.5,-1427.61 1126.5,-1427.61"/>
</g>
<!-- node_8818a6bb -->
<g id="node40" class="node">
<title>node_8818a6bb</title>
<path fill="#cccccc" stroke="black" d="M689.5,-736C689.5,-736 574.5,-736 574.5,-736 568.5,-736 562.5,-730 562.5,-724 562.5,-724 562.5,-712 562.5,-712 562.5,-706 568.5,-700 574.5,-700 574.5,-700 689.5,-700 689.5,-700 695.5,-700 701.5,-706 701.5,-712 701.5,-712 701.5,-724 701.5,-724 701.5,-730 695.5,-736 689.5,-736"/>
<text text-anchor="middle" x="632" y="-712.95" font-family="Times,serif" font-size="14.00">28: setup_simulation()</text>
</g>
<!-- node_1c0ee571&#45;&gt;node_8818a6bb -->
<g id="edge62" class="edge">
<title>node_1c0ee571&#45;&gt;node_8818a6bb</title>
<path fill="none" stroke="#e69f00" stroke-width="2" d="M464.62,-718C464.62,-718 549.01,-718 549.01,-718"/>
<polygon fill="#e69f00" stroke="#e69f00" stroke-width="2" points="549.01,-721.5 559.01,-718 549.01,-714.5 549.01,-721.5"/>
</g>
<!-- node_1c0ee571&#45;&gt;node_c1983094 -->
<g id="edge63" class="edge">
<title>node_1c0ee571&#45;&gt;node_c1983094</title>
<path fill="none" stroke="#e69f00" stroke-width="2" d="M447,-736.46C447,-827.03 447,-1220 447,-1220 447,-1220 870,-1220 870,-1220 870,-1220 870,-1220.98 870,-1220.98"/>
<polygon fill="#e69f00" stroke="#e69f00" stroke-width="2" points="866.5,-1216.77 870,-1226.77 873.5,-1216.77 866.5,-1216.77"/>
</g>
<!-- node_1c0ee571&#45;&gt;node_b3dfb935 -->
<g id="edge64" class="edge">
<title>node_1c0ee571&#45;&gt;node_b3dfb935</title>
<path fill="none" stroke="#e69f00" stroke-width="2" d="M453,-736.23C453,-823.05 453,-1190.4 453,-1190.4 453,-1190.4 792.41,-1190.4 792.41,-1190.4"/>
<polygon fill="#e69f00" stroke="#e69f00" stroke-width="2" points="792.41,-1193.9 802.41,-1190.4 792.41,-1186.9 792.41,-1193.9"/>
</g>
<!-- node_8818a6bb&#45;&gt;node_b612a394 -->
<g id="edge65" class="edge">
<title>node_8818a6bb&#45;&gt;node_b612a394</title>
<path fill="none" stroke="#009e73" stroke-width="2" d="M701.98,-718C724.62,-718 744,-718 744,-718 744,-718 744,-479.5 744,-479.5 744,-479.5 814.07,-479.5 814.07,-479.5"/>
<polygon fill="#009e73" stroke="#009e73" stroke-width="2" points="814.07,-483 824.07,-479.5 814.07,-476 814.07,-483"/>
</g>
<!-- node_b3dfb935&#45;&gt;node_8af144f0 -->
<g id="edge67" class="edge">
<title>node_b3dfb935&#45;&gt;node_8af144f0</title>
<path fill="none" stroke="#0072b2" stroke-width="2" d="M933.76,-1194C987.68,-1194 1056,-1194 1056,-1194 1056,-1194 1056,-1481.91 1056,-1481.91"/>
<polygon fill="#0072b2" stroke="#0072b2" stroke-width="2" points="1052.5,-1481.91 1056,-1491.91 1059.5,-1481.91 1052.5,-1481.91"/>
</g>
<!-- node_ceb90704 -->
<g id="node43" class="node">
<title>node_ceb90704</title>
<path fill="#966f33" stroke="black" d="M658.75,-502C658.75,-502 605.25,-502 605.25,-502 599.25,-502 593.25,-496 593.25,-490 593.25,-490 593.25,-478 593.25,-478 593.25,-472 599.25,-466 605.25,-466 605.25,-466 658.75,-466 658.75,-466 664.75,-466 670.75,-472 670.75,-478 670.75,-478 670.75,-490 670.75,-490 670.75,-496 664.75,-502 658.75,-502"/>
<text text-anchor="middle" x="632" y="-478.95" font-family="Times,serif" font-size="14.00">17: setUp()</text>
</g>
<!-- node_ceb90704&#45;&gt;node_c82b002f -->
<g id="edge68" class="edge">
<title>node_ceb90704&#45;&gt;node_c82b002f</title>
<path fill="none" stroke="#f0e442" stroke-width="2" d="M632,-502.28C632,-516.78 632,-534.62 632,-534.62 632,-534.62 978,-534.62 978,-534.62 978,-534.62 978,-1459 978,-1459 978,-1459 1071.46,-1459 1071.46,-1459"/>
<polygon fill="#f0e442" stroke="#f0e442" stroke-width="2" points="1071.46,-1462.5 1081.46,-1459 1071.46,-1455.5 1071.46,-1462.5"/>
</g>
<!-- node_ceb90704&#45;&gt;node_b612a394 -->
<g id="edge69" class="edge">
<title>node_ceb90704&#45;&gt;node_b612a394</title>
<path fill="none" stroke="#f0e442" stroke-width="2" d="M671.24,-475C671.24,-475 814.09,-475 814.09,-475"/>
<polygon fill="#f0e442" stroke="#f0e442" stroke-width="2" points="814.09,-478.5 824.09,-475 814.09,-471.5 814.09,-478.5"/>
</g>
<!-- node_876592b6 -->
<g id="node44" class="node">
<title>node_876592b6</title>
<path fill="#6db33f" stroke="black" d="M1163.62,-875C1163.62,-875 1096.62,-875 1096.62,-875 1090.62,-875 1084.62,-869 1084.62,-863 1084.62,-863 1084.62,-851 1084.62,-851 1084.62,-845 1090.62,-839 1096.62,-839 1096.62,-839 1163.62,-839 1163.62,-839 1169.62,-839 1175.62,-845 1175.62,-851 1175.62,-851 1175.62,-863 1175.62,-863 1175.62,-869 1169.62,-875 1163.62,-875"/>
<text text-anchor="middle" x="1130.12" y="-851.95" font-family="Times,serif" font-size="14.00">29: __init__()</text>
</g>
<!-- node_0b43ea74 -->
<g id="node45" class="node">
<title>node_0b43ea74</title>
<path fill="#6db33f" stroke="black" d="M1163.62,-960C1163.62,-960 1096.62,-960 1096.62,-960 1090.62,-960 1084.62,-954 1084.62,-948 1084.62,-948 1084.62,-936 1084.62,-936 1084.62,-930 1090.62,-924 1096.62,-924 1096.62,-924 1163.62,-924 1163.62,-924 1169.62,-924 1175.62,-930 1175.62,-936 1175.62,-936 1175.62,-948 1175.62,-948 1175.62,-954 1169.62,-960 1163.62,-960"/>
<text text-anchor="middle" x="1130.12" y="-936.95" font-family="Times,serif" font-size="14.00">13: __init__()</text>
</g>
<!-- node_58ecb3bf -->
<g id="node46" class="node">
<title>node_58ecb3bf</title>
<path fill="#cccccc" stroke="black" d="M1239,-736C1239,-736 1021.25,-736 1021.25,-736 1015.25,-736 1009.25,-730 1009.25,-724 1009.25,-724 1009.25,-712 1009.25,-712 1009.25,-706 1015.25,-700 1021.25,-700 1021.25,-700 1239,-700 1239,-700 1245,-700 1251,-706 1251,-712 1251,-712 1251,-724 1251,-724 1251,-730 1245,-736 1239,-736"/>
<text text-anchor="middle" x="1130.12" y="-712.95" font-family="Times,serif" font-size="14.00">173: compute_boundary_contact_proxy()</text>
</g>
<!-- node_58ecb3bf&#45;&gt;node_1850ece9 -->
<g id="edge71" class="edge">
<title>node_58ecb3bf&#45;&gt;node_1850ece9</title>
<path fill="none" stroke="#cc79a7" stroke-width="2" d="M1241,-736.34C1241,-854.81 1241,-1507 1241,-1507 1241,-1507 1273.54,-1507 1273.54,-1507"/>
<polygon fill="#cc79a7" stroke="#cc79a7" stroke-width="2" points="1273.54,-1510.5 1283.54,-1507 1273.54,-1503.5 1273.54,-1510.5"/>
</g>
<!-- node_dc909c44 -->
<g id="node47" class="node">
<title>node_dc909c44</title>
<path fill="#966f33" stroke="black" d="M954.88,-736C954.88,-736 784.38,-736 784.38,-736 778.38,-736 772.38,-730 772.38,-724 772.38,-724 772.38,-712 772.38,-712 772.38,-706 778.38,-700 784.38,-700 784.38,-700 954.88,-700 954.88,-700 960.88,-700 966.88,-706 966.88,-712 966.88,-712 966.88,-724 966.88,-724 966.88,-730 960.88,-736 954.88,-736"/>
<text text-anchor="middle" x="869.62" y="-712.95" font-family="Times,serif" font-size="14.00">146: test_friction_limit_sliding()</text>
</g>
<!-- node_dc909c44&#45;&gt;node_876592b6 -->
<g id="edge72" class="edge">
<title>node_dc909c44&#45;&gt;node_876592b6</title>
<path fill="none" stroke="#f0e442" stroke-width="2" d="M956,-736.35C956,-774.86 956,-860.6 956,-860.6 956,-860.6 1071.35,-860.6 1071.35,-860.6"/>
<polygon fill="#f0e442" stroke="#f0e442" stroke-width="2" points="1071.35,-864.1 1081.35,-860.6 1071.35,-857.1 1071.35,-864.1"/>
</g>
<!-- node_dc909c44&#45;&gt;node_0b43ea74 -->
<g id="edge73" class="edge">
<title>node_dc909c44&#45;&gt;node_0b43ea74</title>
<path fill="none" stroke="#f0e442" stroke-width="2" d="M946,-736.24C946,-790.25 946,-945.6 946,-945.6 946,-945.6 1071.11,-945.6 1071.11,-945.6"/>
<polygon fill="#f0e442" stroke="#f0e442" stroke-width="2" points="1071.11,-949.1 1081.11,-945.6 1071.11,-942.1 1071.11,-949.1"/>
</g>
<!-- node_dc909c44&#45;&gt;node_58ecb3bf -->
<g id="edge74" class="edge">
<title>node_dc909c44&#45;&gt;node_58ecb3bf</title>
<path fill="none" stroke="#f0e442" stroke-width="2" d="M967.37,-718C967.37,-718 995.92,-718 995.92,-718"/>
<polygon fill="#f0e442" stroke="#f0e442" stroke-width="2" points="995.92,-721.5 1005.92,-718 995.92,-714.5 995.92,-721.5"/>
</g>
<!-- node_7a7a7b9f -->
<g id="node48" class="node">
<title>node_7a7a7b9f</title>
<path fill="#966f33" stroke="black" d="M923,-790C923,-790 816.25,-790 816.25,-790 810.25,-790 804.25,-784 804.25,-778 804.25,-778 804.25,-766 804.25,-766 804.25,-760 810.25,-754 816.25,-754 816.25,-754 923,-754 923,-754 929,-754 935,-760 935,-766 935,-766 935,-778 935,-778 935,-784 929,-790 923,-790"/>
<text text-anchor="middle" x="869.62" y="-766.95" font-family="Times,serif" font-size="14.00">89: test_no_contact()</text>
</g>
<!-- node_7a7a7b9f&#45;&gt;node_876592b6 -->
<g id="edge75" class="edge">
<title>node_7a7a7b9f&#45;&gt;node_876592b6</title>
<path fill="none" stroke="#cc79a7" stroke-width="2" d="M926,-790.47C926,-818.31 926,-867.8 926,-867.8 926,-867.8 1071.29,-867.8 1071.29,-867.8"/>
<polygon fill="#cc79a7" stroke="#cc79a7" stroke-width="2" points="1071.29,-871.3 1081.29,-867.8 1071.29,-864.3 1071.29,-871.3"/>
</g>
<!-- node_7a7a7b9f&#45;&gt;node_0b43ea74 -->
<g id="edge76" class="edge">
<title>node_7a7a7b9f&#45;&gt;node_0b43ea74</title>
<path fill="none" stroke="#cc79a7" stroke-width="2" d="M919,-790.33C919,-836.3 919,-952.8 919,-952.8 919,-952.8 1071.29,-952.8 1071.29,-952.8"/>
<polygon fill="#cc79a7" stroke="#cc79a7" stroke-width="2" points="1071.29,-956.3 1081.29,-952.8 1071.29,-949.3 1071.29,-956.3"/>
</g>
<!-- node_7a7a7b9f&#45;&gt;node_58ecb3bf -->
<g id="edge77" class="edge">
<title>node_7a7a7b9f&#45;&gt;node_58ecb3bf</title>
<path fill="none" stroke="#cc79a7" stroke-width="2" d="M935.14,-772C975.28,-772 1019,-772 1019,-772 1019,-772 1019,-749.31 1019,-749.31"/>
<polygon fill="#cc79a7" stroke="#cc79a7" stroke-width="2" points="1022.5,-749.31 1019,-739.31 1015.5,-749.31 1022.5,-749.31"/>
</g>
<!-- node_23cbc42c -->
<g id="node49" class="node">
<title>node_23cbc42c</title>
<path fill="#966f33" stroke="black" d="M944.75,-628C944.75,-628 794.5,-628 794.5,-628 788.5,-628 782.5,-622 782.5,-616 782.5,-616 782.5,-604 782.5,-604 782.5,-598 788.5,-592 794.5,-592 794.5,-592 944.75,-592 944.75,-592 950.75,-592 956.75,-598 956.75,-604 956.75,-604 956.75,-616 956.75,-616 956.75,-622 950.75,-628 944.75,-628"/>
<text text-anchor="middle" x="869.62" y="-604.95" font-family="Times,serif" font-size="14.00">105: test_normal_repulsion()</text>
</g>
<!-- node_23cbc42c&#45;&gt;node_876592b6 -->
<g id="edge78" class="edge">
<title>node_23cbc42c&#45;&gt;node_876592b6</title>
<path fill="none" stroke="#f0e442" stroke-width="2" d="M957,-610C982.67,-610 1004,-610 1004,-610 1004,-610 1004,-846.2 1004,-846.2 1004,-846.2 1071.21,-846.2 1071.21,-846.2"/>
<polygon fill="#f0e442" stroke="#f0e442" stroke-width="2" points="1071.21,-849.7 1081.21,-846.2 1071.21,-842.7 1071.21,-849.7"/>
</g>
<!-- node_23cbc42c&#45;&gt;node_0b43ea74 -->
<g id="edge79" class="edge">
<title>node_23cbc42c&#45;&gt;node_0b43ea74</title>
<path fill="none" stroke="#f0e442" stroke-width="2" d="M957.02,-619C977.76,-619 994,-619 994,-619 994,-619 994,-931.2 994,-931.2 994,-931.2 1071.39,-931.2 1071.39,-931.2"/>
<polygon fill="#f0e442" stroke="#f0e442" stroke-width="2" points="1071.39,-934.7 1081.39,-931.2 1071.39,-927.7 1071.39,-934.7"/>
</g>
<!-- node_23cbc42c&#45;&gt;node_58ecb3bf -->
<g id="edge80" class="edge">
<title>node_23cbc42c&#45;&gt;node_58ecb3bf</title>
<path fill="none" stroke="#f0e442" stroke-width="2" d="M956.91,-601C1045.6,-601 1170,-601 1170,-601 1170,-601 1170,-686.69 1170,-686.69"/>
<polygon fill="#f0e442" stroke="#f0e442" stroke-width="2" points="1166.5,-686.69 1170,-696.69 1173.5,-686.69 1166.5,-686.69"/>
</g>
<!-- node_7a9ca801 -->
<g id="node50" class="node">
<title>node_7a9ca801</title>
<path fill="#966f33" stroke="black" d="M939.5,-682C939.5,-682 799.75,-682 799.75,-682 793.75,-682 787.75,-676 787.75,-670 787.75,-670 787.75,-658 787.75,-658 787.75,-652 793.75,-646 799.75,-646 799.75,-646 939.5,-646 939.5,-646 945.5,-646 951.5,-652 951.5,-658 951.5,-658 951.5,-670 951.5,-670 951.5,-676 945.5,-682 939.5,-682"/>
<text text-anchor="middle" x="869.62" y="-658.95" font-family="Times,serif" font-size="14.00">125: test_tangential_stick()</text>
</g>
<!-- node_7a9ca801&#45;&gt;node_876592b6 -->
<g id="edge81" class="edge">
<title>node_7a9ca801&#45;&gt;node_876592b6</title>
<path fill="none" stroke="#e69f00" stroke-width="2" d="M951.93,-664C977.44,-664 999,-664 999,-664 999,-664 999,-853.4 999,-853.4 999,-853.4 1071.24,-853.4 1071.24,-853.4"/>
<polygon fill="#e69f00" stroke="#e69f00" stroke-width="2" points="1071.24,-856.9 1081.24,-853.4 1071.24,-849.9 1071.24,-856.9"/>
</g>
<!-- node_7a9ca801&#45;&gt;node_0b43ea74 -->
<g id="edge82" class="edge">
<title>node_7a9ca801&#45;&gt;node_0b43ea74</title>
<path fill="none" stroke="#e69f00" stroke-width="2" d="M951.88,-673C972.56,-673 989,-673 989,-673 989,-673 989,-938.4 989,-938.4 989,-938.4 1071.28,-938.4 1071.28,-938.4"/>
<polygon fill="#e69f00" stroke="#e69f00" stroke-width="2" points="1071.28,-941.9 1081.28,-938.4 1071.28,-934.9 1071.28,-941.9"/>
</g>
<!-- node_7a9ca801&#45;&gt;node_58ecb3bf -->
<g id="edge83" class="edge">
<title>node_7a9ca801&#45;&gt;node_58ecb3bf</title>
<path fill="none" stroke="#e69f00" stroke-width="2" d="M952,-655C1014.59,-655 1090,-655 1090,-655 1090,-655 1090,-686.75 1090,-686.75"/>
<polygon fill="#e69f00" stroke="#e69f00" stroke-width="2" points="1086.5,-686.75 1090,-696.75 1093.5,-686.75 1086.5,-686.75"/>
</g>
</g>
</svg>
